<svg width="24" height="24" viewBox="0 0 54 54" fill="none" xmlns="http://www.w3.org/2000/svg">
<path d="M16.5186 22.6902L27.0064 12.2066L37.4985 22.6987L43.5975 16.5954L27.0064 0L10.4153 16.5911L16.5186 22.6902Z" fill="white"/>
<path d="M0 27.0021L6.09904 20.8988L12.2024 27.0021L6.09904 33.1012L0 27.0021Z" fill="white"/>
<path d="M16.5186 31.3098L27.0064 41.7976L37.4985 31.3056L43.6018 37.4004L27.0107 53.9957L10.4153 37.4131L16.5186 31.3098Z" fill="white"/>
<path d="M41.7976 27.0021L47.8967 20.8988L54 26.9979L47.8967 33.1055L41.7976 27.0021Z" fill="white"/>
<path d="M33.1951 26.9979L27.0065 20.805L22.4301 25.3814L21.9012 25.906L20.8179 26.9893L27.0065 33.1737L33.1951 27.0021V26.9979Z" fill="white"/>
</svg>
