<svg width="97" height="25" viewBox="0 0 97 25" fill="none" xmlns="http://www.w3.org/2000/svg">
<path d="M43.7062 6.03481C43.7521 5.87433 43.798 5.70224 44.4521 5.70224C46.4824 5.70224 46.872 7.11278 46.872 8.27152C46.872 8.97098 46.4935 12.5037 42.8806 12.5037C42.3416 12.5037 42.066 12.4351 42.066 12.0566C42.066 11.8728 42.2154 11.3682 42.3183 10.9897L43.7062 6.03481V6.03481ZM41.6078 5.54123C42.1927 5.58715 42.491 5.64469 42.491 6.03481C42.491 6.26445 42.3991 6.61972 42.3648 6.74589L40.9542 11.8158C40.7595 12.5269 40.5874 12.5612 40.0251 12.6642V12.8479H42.927C46.2992 12.8479 48.1458 10.7257 48.1458 8.4093C48.1458 7.20516 47.4347 5.35805 44.7968 5.35805H41.6083V5.54123H41.6078ZM50.5192 11.6664C50.0721 12.3432 49.5674 12.974 48.925 12.974C48.386 12.974 48.386 12.4694 48.386 12.263C48.386 11.724 49.2919 8.87913 49.2919 8.55817C49.2919 8.31745 49.2 8.2599 48.5692 8.2599V8.0762C49.0052 8.0535 49.957 7.86979 50.4042 7.78955L50.4385 7.81225L49.4291 11.5054C49.3832 11.6659 49.2454 12.1246 49.2454 12.2624C49.2454 12.3427 49.3257 12.4345 49.4291 12.4345C49.5669 12.4345 49.8995 12.2049 50.3698 11.5397L50.5192 11.6664V11.6664ZM50.2901 6.56218C50.0035 6.56218 49.7395 6.36686 49.7395 5.96566C49.7395 5.56445 50.0035 5.34643 50.2785 5.34643C50.657 5.34643 50.8518 5.72494 50.8518 5.97727C50.8518 6.20638 50.6681 6.56218 50.2901 6.56218V6.56218ZM55.8758 11.6548C55.3025 12.4234 54.9008 12.9508 54.2816 12.9508C53.7537 12.9508 53.731 12.6066 53.731 12.274C53.731 11.999 54.5798 9.20009 54.5798 8.74135C54.5798 8.53494 54.5112 8.37446 54.2932 8.37446C53.7426 8.37446 53.0199 9.3611 52.6071 10.003C52.0797 10.7943 51.9303 11.2879 51.4605 12.8473H50.6005C50.9558 11.5514 51.7244 8.86752 51.7244 8.62627C51.7244 8.45417 51.6099 8.328 50.9907 8.328V8.14429C51.6099 8.02974 52.2291 7.91519 52.8489 7.78902L52.8832 7.81172L52.1489 10.2089L52.1716 10.2316C52.7106 9.38274 53.7658 7.78849 54.7176 7.78849C55.2455 7.78849 55.5089 8.06353 55.5089 8.5455C55.5089 9.03855 54.5915 11.8718 54.5915 12.216C54.5915 12.3881 54.7519 12.4113 54.7752 12.4113C55.0048 12.4113 55.2914 12.0444 55.7159 11.5049L55.8758 11.6548V11.6548ZM57.3439 9.9571C57.7683 8.93614 58.5481 8.0535 59.1678 8.0535C59.4545 8.0535 59.569 8.27152 59.569 8.51224C59.569 8.60409 59.512 9.98032 57.1491 10.4623L57.3439 9.9571V9.9571ZM59.7063 11.5973C59.133 12.0676 58.651 12.4578 58.0318 12.4578C57.5498 12.4578 56.9538 12.1938 56.9538 11.4136C56.9538 11.1839 57.0113 10.9548 57.0684 10.7141L57.3893 10.6682C59.2475 10.4042 60.3255 9.47513 60.3255 8.56925C60.3255 8.06458 59.9697 7.78902 59.3848 7.78902C57.7678 7.78902 55.9555 9.71585 55.9555 11.356C55.9555 12.0787 56.3224 12.973 57.5271 12.973C58.6742 12.973 59.7179 11.9177 59.844 11.734L59.7063 11.5973V11.5973ZM60.4063 12.8473L61.3354 9.49835C61.4499 9.07392 61.5185 8.68434 61.5185 8.58087C61.5185 8.42039 61.4615 8.2372 61.1057 8.2372C60.9796 8.2372 60.8534 8.27152 60.7272 8.29422V8.09942C61.3121 8.01918 61.9889 7.86979 62.5052 7.78955L62.5395 7.81225L61.9778 10.0949L62.0005 10.1176L62.0924 9.88794C62.4709 9.13094 63.343 7.78902 64.0651 7.78902C64.3291 7.78902 64.6157 7.96111 64.6157 8.3507C64.6157 8.94723 64.2029 8.94723 64.0767 8.94723C63.5837 8.94723 63.7558 8.53441 63.4802 8.53441C63.1249 8.53441 62.4366 9.8077 62.3447 9.97979C61.9087 10.8054 61.7482 11.3217 61.2778 12.8473H60.4063V12.8473ZM64.0303 11.1728C64.1105 11.6775 64.2942 12.7328 65.2233 12.7328C65.8653 12.7328 66.049 12.1822 66.049 11.8037C66.049 11.0467 64.6843 9.94548 64.6843 9.06231C64.6843 8.70703 64.8448 7.78902 66.0606 7.78902C66.5769 7.78902 66.806 7.98434 67.1502 7.98434C67.3455 7.98434 67.4141 7.86979 67.4711 7.7774H67.6316L67.402 9.37219H67.2183C67.1612 8.71812 66.8857 8.05297 66.1403 8.05297C65.888 8.05297 65.5211 8.15591 65.5211 8.71812C65.5211 9.44081 66.92 10.4618 66.92 11.4363C66.92 12.6863 65.8531 12.9735 65.2112 12.9735C64.867 12.9735 64.4083 12.7555 64.0757 12.7555C63.9152 12.7555 63.8693 12.87 63.8006 12.9967H63.6169L63.8466 11.1728H64.0303V11.1728ZM77.1174 7.47967C77.0947 7.15871 76.9912 5.62147 75.3511 5.62147C73.0573 5.62147 71.887 8.39716 71.887 10.0833C71.887 11.5862 72.5178 12.538 73.883 12.538C75.179 12.538 75.9819 11.7234 76.5325 11.1845L76.7273 11.3449C76.3029 11.8496 75.2819 13.0538 73.6074 13.0538C72.2766 13.0538 70.6026 12.2508 70.6026 9.9571C70.6026 7.74362 72.6324 5.20865 75.2592 5.20865C76.0848 5.20865 76.7848 5.48368 77.0483 5.48368C77.3808 5.48368 77.4495 5.3459 77.507 5.23135H77.7477L77.3233 7.51398L77.1174 7.47967ZM79.2274 11.5397C78.6425 12.4229 78.1949 12.9735 77.4838 12.9735C76.9791 12.9735 76.9332 12.5834 76.9332 12.2624C76.9332 12.0212 78.5966 6.03428 78.5966 5.79356C78.5966 5.49582 78.1146 5.49583 77.8163 5.50691V5.3232C78.4129 5.25458 79.0094 5.15111 79.6054 5.01385L79.6629 5.07087L77.9309 11.7118C77.9082 11.8153 77.8163 12.1246 77.8163 12.2508C77.8163 12.3194 77.8163 12.4804 77.9884 12.4804C78.2751 12.4804 78.5163 12.1595 79.078 11.4363L79.2274 11.5397V11.5397ZM84.5265 11.6089C83.8038 12.6525 83.5055 12.9508 82.9322 12.9508C82.4159 12.9508 82.3932 12.5264 82.3932 12.3543C82.3932 12.1479 82.6229 11.1845 82.8863 10.2437H82.852C82.0717 11.5397 81.2234 12.9735 80.1908 12.9735C79.778 12.9735 79.56 12.8014 79.56 12.2967C79.56 11.7921 80.4316 8.9013 80.4316 8.59195C80.4316 8.25937 80.2135 8.25938 79.7437 8.25938V8.09942C80.3227 8.02941 80.8971 7.92594 81.4641 7.78955L81.4984 7.81225L80.4543 11.9758C80.4199 12.1246 80.4543 12.3654 80.6955 12.3654C81.1886 12.3654 81.9113 11.2874 82.3014 10.6909C82.8636 9.84201 83.1159 9.11932 83.5631 7.89196H84.4119L83.506 11.3217C83.4374 11.5513 83.288 12.056 83.288 12.2281C83.288 12.2851 83.2991 12.4118 83.4258 12.4118C83.6438 12.4118 83.9648 12.0101 84.3665 11.5054L84.5265 11.6089V11.6089ZM88.69 9.32626C88.69 10.2897 87.6004 12.7101 86.0289 12.7101C85.4899 12.7101 85.4899 12.4118 85.4899 12.3316C85.4899 11.1274 86.5911 8.35123 87.8528 8.35123C88.5755 8.35123 88.69 8.97098 88.69 9.32626V9.32626ZM85.5015 5.4726C86.1667 5.48421 86.2469 5.54123 86.2469 5.80518C86.2469 5.96566 86.1439 6.25231 86.0637 6.5738L84.5038 12.32V12.3659C84.5038 12.6182 85.3869 12.974 85.9951 12.974C87.7498 12.974 89.665 10.9897 89.665 9.17739C89.665 8.34014 89.1033 7.78955 88.3004 7.78955C87.2684 7.78955 86.5457 8.85643 86.1672 9.45242L86.1445 9.44134C86.5346 8.14482 87.062 6.01158 87.3143 5.0714L87.2573 5.01438C86.6608 5.12894 86.0759 5.20918 85.5026 5.27833V5.4726H85.5015ZM40.0288 21.6015C40.5911 21.498 40.7632 21.4637 40.9579 20.7526L42.3685 15.6827C42.4371 15.453 42.4947 15.178 42.4947 14.9716C42.4947 14.5704 42.1853 14.5361 41.6917 14.4785V14.2948H44.525V14.4785C43.9633 14.582 43.7796 14.6047 43.5842 15.3274L42.1737 20.4084C42.1051 20.6381 42.0475 20.8672 42.0475 21.1427C42.0475 21.5096 42.3342 21.5445 42.8278 21.6015V21.7852H40.0288V21.6015V21.6015Z" fill="white"/>
<path d="M48.3442 20.5921C47.7704 21.3608 47.3692 21.8887 46.7494 21.8887C46.2221 21.8887 46.1988 21.5445 46.1988 21.2119C46.1988 20.9369 47.0477 18.1379 47.0477 17.6792C47.0477 17.4728 46.9791 17.3123 46.761 17.3123C46.2104 17.3123 45.4878 18.299 45.0749 18.9409C44.547 19.7322 44.3982 20.2253 43.9278 21.7852H43.0679C43.4231 20.4892 44.1918 17.8048 44.1918 17.5641C44.1918 17.392 44.0772 17.2659 43.458 17.2659V17.0821C44.0772 16.9676 44.6964 16.8525 45.3162 16.7263L45.3505 16.7496L44.6167 19.1468L44.6394 19.17C45.1784 18.3211 46.2337 16.7269 47.1855 16.7269C47.7134 16.7269 47.9773 17.0024 47.9773 17.4844C47.9773 17.9775 47.0598 20.8107 47.0598 21.1549C47.0598 21.327 47.2203 21.3497 47.2435 21.3497C47.4732 21.3497 47.7598 20.9828 48.1837 20.4438L48.3442 20.5921V20.5921ZM51.4066 17.2426H50.4431L49.4338 21.062C49.4222 21.0963 49.4222 21.119 49.4222 21.1538C49.4222 21.2568 49.4792 21.3486 49.6059 21.3486C49.8355 21.3486 50.2367 20.8096 50.5234 20.4427L50.6722 20.523C50.0873 21.4062 49.6402 21.9108 49.0437 21.9108C48.814 21.9108 48.4931 21.7963 48.4931 21.4521C48.4931 21.28 48.7111 20.5805 48.757 20.3968L49.5827 17.2426H48.7338C48.7227 17.174 48.7227 17.1165 48.757 17.0589C48.8257 16.9554 49.1466 16.8752 49.3419 16.7723C49.7204 16.5769 50.271 16.0612 50.592 15.6595C50.6379 15.6024 50.6839 15.499 50.7868 15.5222C50.867 15.499 50.8903 15.6024 50.867 15.6943L50.5461 16.8757H51.4636L51.4066 17.2426V17.2426ZM52.427 18.8944C52.8514 17.8735 53.6316 16.9903 54.2509 16.9903C54.5375 16.9903 54.6526 17.2083 54.6526 17.449C54.6526 17.5409 54.5951 18.9171 52.2327 19.3991L52.427 18.8944V18.8944ZM54.7899 20.5346C54.2166 21.005 53.7346 21.3945 53.1154 21.3945C52.6334 21.3945 52.0374 21.1306 52.0374 20.3509C52.0374 20.1213 52.0944 19.8921 52.1519 19.6514L52.4729 19.6055C54.3311 19.3415 55.4091 18.4124 55.4091 17.506C55.4091 17.0014 55.0533 16.7258 54.4684 16.7258C52.8514 16.7258 51.0386 18.6526 51.0386 20.2928C51.0386 21.0155 51.4055 21.9098 52.6102 21.9098C53.7573 21.9098 54.8009 20.8545 54.9271 20.6713L54.7899 20.5346ZM55.719 21.7847L56.6481 18.4357C56.7626 18.0112 56.8318 17.6211 56.8318 17.5182C56.8318 17.3577 56.7742 17.174 56.4189 17.174C56.2928 17.174 56.1666 17.2083 56.0404 17.2315V17.0362C56.6254 16.956 57.3021 16.8066 57.8184 16.7263L57.8527 16.7496L57.291 19.0322L57.3137 19.0549L57.4056 18.8253C57.7841 18.0683 58.6557 16.7258 59.3784 16.7258C59.6423 16.7258 59.9289 16.8979 59.9289 17.288C59.9289 17.8845 59.5161 17.8846 59.39 17.8846C58.8969 17.8846 59.069 17.4717 58.794 17.4717C58.4382 17.4717 57.7498 18.745 57.6585 18.9171C57.2224 19.7428 57.0619 20.259 56.5916 21.7847H55.719V21.7847Z" fill="white"/>
<path d="M64.5275 20.5922C63.9542 21.3608 63.5525 21.8887 62.9333 21.8887C62.4054 21.8887 62.3827 21.5445 62.3827 21.2119C62.3827 20.9369 63.2315 18.138 63.2315 17.6792C63.2315 17.4728 63.1629 17.3123 62.9449 17.3123C62.3948 17.3123 61.6716 18.299 61.2588 18.9409C60.7314 19.7322 60.582 20.2253 60.1117 21.7852H59.2517C59.6075 20.4892 60.3756 17.8049 60.3756 17.5642C60.3756 17.3921 60.2611 17.2659 59.6413 17.2659V17.0822C60.2605 16.9676 60.8803 16.8525 61.4995 16.7264L61.5338 16.7496L60.7995 19.1468L60.8222 19.17C61.3612 18.3212 62.4165 16.7269 63.3688 16.7269C63.8967 16.7269 64.1601 17.0025 64.1601 17.4844C64.1601 17.9775 63.2426 20.8107 63.2426 21.1549C63.2426 21.327 63.4031 21.3497 63.4263 21.3497C63.656 21.3497 63.9426 20.9828 64.367 20.4438L64.5275 20.5922V20.5922Z" fill="white"/>
<path d="M65.4107 20.5346C65.4107 19.502 66.4433 16.9792 67.7852 16.9792C68.1178 16.9792 68.4393 17.1972 68.4393 17.7478C68.4393 18.8717 67.3154 21.3491 66.0991 21.3491C65.7892 21.3491 65.4107 21.1427 65.4107 20.5346ZM69.5743 20.523C69.058 21.0277 68.8283 21.3148 68.6568 21.3148C68.5649 21.3148 68.4963 21.2462 68.4963 21.1654C68.4963 20.8102 69.5516 16.8984 69.5859 16.7612L69.5056 16.7269L68.8062 16.8071L68.7719 16.8414L68.6573 17.3466H68.6346C68.6003 17.0251 68.2218 16.7269 67.7287 16.7269C66.2031 16.7269 64.4484 18.8717 64.4484 20.5578C64.4484 20.8904 64.4827 21.9108 65.6298 21.9108C66.3182 21.9108 66.9258 21.5666 67.8776 20.1677L67.9003 20.1904C67.7166 20.8899 67.6596 21.1422 67.6596 21.4062C67.6596 21.601 67.6596 21.8992 68.1415 21.8992C68.6346 21.8992 69.0247 21.4864 69.7131 20.6375L69.5743 20.523V20.523ZM72.9808 17.2426H72.0174L71.008 21.062C70.9964 21.0963 70.9964 21.119 70.9964 21.1538C70.9964 21.2568 71.054 21.3486 71.1801 21.3486C71.4098 21.3486 71.811 20.8096 72.0976 20.4427L72.2465 20.523C71.6616 21.4062 71.2144 21.9108 70.6179 21.9108C70.3883 21.9108 70.0673 21.7963 70.0673 21.4521C70.0673 21.28 70.2853 20.5805 70.3313 20.3968L71.1569 17.2426H70.308C70.297 17.174 70.2969 17.1165 70.3313 17.0589C70.3999 16.9554 70.7209 16.8752 70.9162 16.7723C71.2947 16.5769 71.8453 16.0612 72.1662 15.6595C72.2122 15.6024 72.2581 15.499 72.3616 15.5222C72.4418 15.499 72.4645 15.6024 72.4418 15.6943L72.1208 16.8757H73.0383L72.9808 17.2426ZM75.1832 20.6038C74.7355 21.2805 74.2314 21.9114 73.5889 21.9114C73.0499 21.9114 73.0499 21.4067 73.0499 21.2003C73.0499 20.6613 73.9558 17.817 73.9558 17.4955C73.9558 17.2542 73.864 17.1972 73.2331 17.1972V17.0135C73.6686 16.9908 74.6204 16.8071 75.0681 16.7269L75.1024 16.7501L74.0931 20.4433C74.0471 20.6038 73.9094 21.0625 73.9094 21.2003C73.9094 21.2805 73.9896 21.3724 74.0931 21.3724C74.2309 21.3724 74.5634 21.1427 75.0333 20.4776L75.1832 20.6038ZM74.9535 15.4995C74.6669 15.4995 74.4029 15.3047 74.4029 14.903C74.4029 14.5018 74.6669 14.2838 74.9419 14.2838C75.3204 14.2838 75.5152 14.6623 75.5152 14.9146C75.5158 15.1437 75.332 15.4995 74.9535 15.4995ZM78.9339 16.9676C79.484 16.9676 79.7368 17.4723 79.7368 18.0688C79.7368 19.2962 78.831 21.6701 77.5234 21.6701C76.9501 21.6701 76.6059 21.2573 76.6059 20.6032C76.6053 19.2502 77.649 16.9676 78.9339 16.9676V16.9676ZM79.0141 16.7263C77.3396 16.7263 75.6419 18.5735 75.6419 20.259C75.6419 21.2108 76.1582 21.9103 77.374 21.9103C79.1287 21.9103 80.7003 19.8346 80.7003 18.4235C80.6997 17.6671 80.3444 16.7263 79.0141 16.7263V16.7263Z" fill="white"/>
<path d="M85.701 20.5921C85.1277 21.3608 84.726 21.8887 84.1067 21.8887C83.5788 21.8887 83.5561 21.5445 83.5561 21.2119C83.5561 20.9369 84.405 18.1379 84.405 17.6792C84.405 17.4728 84.3364 17.3123 84.1184 17.3123C83.5678 17.3123 82.8451 18.2989 82.4322 18.9409C81.9043 19.7322 81.7555 20.2253 81.2851 21.7852H80.4252C80.781 20.4892 81.5491 17.8048 81.5491 17.5641C81.5491 17.392 81.4345 17.2659 80.8148 17.2659V17.0821C81.434 16.9676 82.0537 16.8525 82.673 16.7263L82.7073 16.7496L81.973 19.1468L81.9957 19.17C82.5347 18.3211 83.5899 16.7269 84.5423 16.7269C85.0702 16.7269 85.3336 17.0024 85.3336 17.4844C85.3336 17.9775 84.4161 20.8107 84.4161 21.1549C84.4161 21.327 84.5766 21.3497 84.5998 21.3497C84.8294 21.3497 85.1161 20.9828 85.5405 20.4438L85.701 20.5921V20.5921ZM86.8133 20.5346C86.8133 19.502 87.8458 16.9792 89.1878 16.9792C89.5203 16.9792 89.8413 17.1972 89.8413 17.7478C89.8413 18.8717 88.7174 21.3491 87.5017 21.3491C87.1918 21.3491 86.8133 21.1427 86.8133 20.5346ZM90.9768 20.523C90.4605 21.0277 90.2309 21.3148 90.0593 21.3148C89.9675 21.3148 89.8988 21.2462 89.8988 21.1654C89.8988 20.8102 90.9541 16.8984 90.9884 16.7612L90.9082 16.7269L90.2082 16.8071L90.1739 16.8414L90.0593 17.3466H90.0366C90.0023 17.0251 89.6238 16.7269 89.1308 16.7269C87.6051 16.7269 85.8504 18.8717 85.8504 20.5578C85.8504 20.8904 85.8847 21.9108 87.0318 21.9108C87.7197 21.9108 88.3278 21.5666 89.2796 20.1677L89.3023 20.1904C89.1186 20.8899 89.0616 21.1422 89.0616 21.4062C89.0616 21.601 89.0616 21.8992 89.543 21.8992C90.0366 21.8992 90.4262 21.4864 91.1146 20.6375L90.9768 20.523V20.523ZM93.5804 20.4771C92.9955 21.3602 92.5484 21.9108 91.8373 21.9108C91.3326 21.9108 91.2867 21.5212 91.2867 21.1998C91.2867 20.959 92.9496 14.9716 92.9496 14.7309C92.9496 14.4326 92.4676 14.4326 92.1693 14.4442V14.2605C92.7712 14.1909 93.3687 14.0874 93.9589 13.9506L94.0159 14.0082L92.2839 20.6492C92.2612 20.7521 92.1693 21.062 92.1693 21.1881C92.1693 21.2568 92.1693 21.4178 92.3414 21.4178C92.6281 21.4178 92.8688 21.0968 93.431 20.3741L93.5804 20.4771V20.4771ZM95.1889 14.2093H95.3066C95.4159 14.2093 95.5046 14.2637 95.5046 14.4273C95.5046 14.5794 95.4502 14.6881 95.3093 14.6881H95.1889V14.2093ZM94.868 14.1977C95.0084 14.212 95.0057 14.2093 95.0057 14.3355V15.0207C95.0057 15.1437 95.0084 15.1437 94.868 15.1585V15.2012H95.3267V15.1585C95.1836 15.1442 95.1889 15.1442 95.1889 15.0207V14.7399H95.3235C95.5041 15.0064 95.5759 15.2012 95.6677 15.2012H95.8483V15.1754C95.7934 15.1353 95.7078 15.0381 95.6334 14.9346L95.4698 14.7108C95.5991 14.6681 95.6962 14.5588 95.6962 14.4131C95.6962 14.2352 95.5384 14.1549 95.3695 14.1549H94.8674V14.1977H94.868ZM96.2959 14.6939C96.2959 14.1518 95.8747 13.7105 95.3293 13.7105C95.2004 13.7101 95.0726 13.7353 94.9534 13.7847C94.8343 13.8341 94.7261 13.9066 94.6352 13.9981C94.5442 14.0895 94.4724 14.1981 94.4237 14.3176C94.375 14.437 94.3506 14.565 94.3517 14.6939C94.3517 15.2356 94.7793 15.6716 95.3293 15.6716C95.8747 15.6716 96.2959 15.2356 96.2959 14.6939ZM96.1381 14.6939C96.1381 15.1495 95.7796 15.5512 95.3293 15.5512C94.8706 15.5512 94.5095 15.1495 94.5095 14.6939C94.5095 14.2378 94.8679 13.8308 95.3293 13.8308C95.7828 13.8308 96.1381 14.2352 96.1381 14.6939Z" fill="white"/>
<path d="M25.7777 24.808C32.3389 24.8402 37.7193 19.4593 37.6733 12.9123C37.7187 6.18634 32.3389 0.805994 25.7777 0.808106H12.6303C5.99044 0.806522 0.610099 6.18634 0.525635 12.9123C0.610099 19.4593 5.99044 24.8396 12.6298 24.808H25.7777V24.808Z" fill="#2D4F9E"/>
<path d="M1.36072 12.9123C1.42618 6.63718 6.44069 1.62214 12.6303 1.64325C18.813 1.62214 23.8281 6.63718 23.8993 12.9128C23.8281 19.0095 18.813 24.0246 12.6303 23.9734C6.44069 24.0246 1.42618 19.009 1.36072 12.9123V12.9123Z" fill="white"/>
<path d="M10.1254 6.23438C7.53187 7.40473 5.58604 9.90696 5.5343 12.9123C5.58604 15.8046 7.43896 18.3523 10.1254 19.3817V6.23438ZM15.1341 19.3822C17.8143 18.3528 19.6667 15.8046 19.7253 12.9128C19.6667 9.84256 17.8137 7.29439 15.1341 6.2349V19.3822Z" fill="#2D4F9E"/>
</svg>
