<svg width="96" height="24" viewBox="0 0 133 34" fill="none" xmlns="http://www.w3.org/2000/svg">
<path fill-rule="evenodd" clip-rule="evenodd" d="M69.223 0.0802046C63.0755 0.0802046 58.0858 4.88689 58.0858 10.8153C58.0858 17.1188 62.8586 21.8317 69.223 21.8317C75.4361 21.8317 80.3321 17.0578 80.3321 10.9418C80.3321 4.85526 75.4689 0.0802046 69.223 0.0802046ZM54.1173 27.1987C53.5795 26.7335 52.8922 26.4772 52.1811 26.4769C50.534 26.4769 49.2756 27.8517 49.2756 29.4784C49.2756 31.0847 50.5227 32.4573 52.1596 32.4573C52.8792 32.4573 53.5717 32.1839 54.1162 31.6981V32.7792C53.5513 33.1102 52.8306 33.2932 52.1878 33.2932C50.0946 33.2932 48.3617 31.6292 48.3617 29.5066C48.3617 27.3331 50.1047 25.6398 52.2646 25.6398C52.9085 25.6398 53.5615 25.7945 54.1162 26.1357V27.1987H54.1173V27.1987ZM61.8588 30.4589H59.2493L60.5552 27.489L61.8588 30.4589ZM62.2395 31.2982L63.0766 33.1384H64.0605L60.5552 25.4828L57.0487 33.1384H58.0315L58.8709 31.2982H62.2395ZM68.2109 26.6136H68.4537C69.3586 26.6136 70.451 26.7785 70.451 27.9273C70.451 29.0965 69.4388 29.2705 68.5023 29.2705H68.2109V26.6136V26.6136ZM69.5427 29.9426C70.6035 29.8173 71.3061 28.9406 71.3061 27.8889C71.3061 27.1874 70.9571 26.4938 70.3414 26.1357C69.7562 25.8058 69.057 25.7946 68.4018 25.7946H67.2936V33.1384H68.2097V30.0319H68.587L70.7515 33.1384H71.8608L69.5427 29.9426V29.9426ZM76.0382 26.6316H76.3602C78.2309 26.6316 79.8463 27.3241 79.8463 29.4637C79.8463 31.5999 78.2309 32.2991 76.3602 32.2991H76.0382V26.6316V26.6316ZM75.1255 33.1373H76.6121C78.9313 33.1373 80.7625 31.9308 80.7625 29.4264C80.7625 26.9807 78.8918 25.7934 76.6437 25.7934H75.1255V33.1373V33.1373ZM5.98265 0.469937H0V21.3607H5.95215C9.11519 21.3607 11.4016 20.6117 13.4068 18.95C15.7869 16.9753 17.1956 14.0009 17.1956 10.9305C17.1956 4.76149 12.5911 0.469937 5.98265 0.469937V0.469937ZM10.7442 16.1631C9.46086 17.3221 7.79914 17.8248 5.16817 17.8248H4.07128V4.00914H5.16817C7.79914 4.00914 9.39647 4.47908 10.7442 5.70137C12.154 6.95416 12.9989 8.89491 12.9989 10.9012C12.9989 12.9052 12.154 14.9103 10.7442 16.1631ZM19.0754 21.3607H23.1478V0.469937H19.0754V21.3607V21.3607ZM33.1091 8.48936C30.6656 7.58112 29.9449 6.98579 29.9449 5.85839C29.9449 4.54234 31.2293 3.54034 32.9837 3.54034C34.206 3.54034 35.208 4.0419 36.2732 5.23143L38.4049 2.44344C36.6494 0.909366 34.5505 0.126521 32.2641 0.126521C28.5679 0.126521 25.7471 2.69535 25.7471 6.10917C25.7471 8.99206 27.0643 10.4629 30.8848 11.8422C32.4821 12.4059 33.2966 12.782 33.7044 13.0317C34.5189 13.566 34.9267 14.3161 34.9267 15.195C34.9267 16.8861 33.5801 18.1366 31.7625 18.1366C29.8206 18.1366 28.2549 17.1674 27.3139 15.3498L24.6818 17.887C26.5627 20.6422 28.8175 21.8656 31.9184 21.8656C36.1478 21.8656 39.1222 19.0449 39.1222 15.0041C39.1234 11.684 37.7441 10.1805 33.1091 8.48936V8.48936ZM40.4066 10.9317C40.4066 17.0725 45.2303 21.8328 51.4332 21.8328C53.1876 21.8328 54.69 21.4872 56.5393 20.6117V15.8174C54.9114 17.4464 53.47 18.1039 51.6219 18.1039C47.519 18.1039 44.6056 15.1295 44.6056 10.9012C44.6056 6.89203 47.6127 3.72786 51.4332 3.72786C53.3751 3.72786 54.8482 4.41582 56.5393 6.07754V1.28442C54.7544 0.376176 53.2825 0 51.5281 0C45.3568 0 40.4066 4.85525 40.4066 10.9317V10.9317ZM89.5523 14.5036L83.9775 0.469937H79.5289L88.3967 21.895H90.5871L99.6096 0.469937H95.1916L89.5523 14.5036V14.5036ZM101.458 21.3607H113.018V17.8237H105.531V12.1856H112.735V8.64525H105.531V4.00914H113.018V0.469937H101.458V21.3607V21.3607ZM129.146 6.64011C129.146 2.72586 126.451 0.469937 121.757 0.469937H115.711V21.3607H119.782V12.9673H120.316L125.953 21.3607H130.967L124.387 12.5606C127.456 11.9348 129.146 9.83591 129.146 6.64011V6.64011ZM120.974 10.0867H119.782V3.75949H121.035C123.574 3.75949 124.951 4.82363 124.951 6.8604C124.951 8.95817 123.574 10.0867 120.974 10.0867V10.0867ZM132.023 2.02773C132.023 1.66285 131.771 1.46064 131.324 1.46064H130.736V3.30424H131.171V2.59143L131.687 3.30424H132.228L131.617 2.54511C131.877 2.47507 132.023 2.28642 132.023 2.02773V2.02773ZM131.25 2.28077H131.171V1.80293H131.255C131.47 1.80293 131.583 1.88088 131.583 2.0379C131.583 2.19831 131.467 2.28077 131.25 2.28077V2.28077Z" fill="white"/>
<path fill-rule="evenodd" clip-rule="evenodd" d="M131.414 0.773926C130.52 0.773926 129.808 1.48787 129.808 2.37691C129.807 2.58813 129.848 2.7974 129.929 2.99269C130.009 3.18798 130.127 3.36544 130.277 3.5149C130.426 3.66437 130.603 3.78288 130.798 3.86365C130.994 3.94441 131.203 3.98584 131.414 3.98554C132.287 3.98554 133 3.26143 133 2.37691C133 1.49803 132.287 0.773926 131.414 0.773926ZM131.412 3.70087C130.703 3.70087 130.125 3.11118 130.125 2.38142C130.125 1.65053 130.697 1.06425 131.412 1.06425C132.106 1.06425 132.68 1.65844 132.68 2.38142C132.68 3.10666 132.106 3.70087 131.412 3.70087Z" fill="white"/>
</svg>
